<svg width="500" height="500" viewBox="0 0 500 500" fill="none" xmlns="http://www.w3.org/2000/svg">
<path d="M480 276.369C480 225.245 460.1 177.193 423.954 141.056C387.807 104.909 339.755 85 288.64 85C252.788 85 217.791 95.028 187.394 114.017C167.531 126.989 149.38 144.625 134.844 165.077H128.026C117.023 165.077 96.544 165.049 96.544 165.049C96.4428 165.049 96.3508 165.058 96.2496 165.077H95.3572L76.258 208.363L30.3132 312.314L20 335.617H117.557L119.001 338.129C135.101 366.235 159.168 387.974 188.608 401.011C189.602 401.443 190.605 401.876 191.617 402.308C212.446 411.011 234.903 415.602 256.55 415.602C266.946 415.602 279.164 414.268 289.21 412.042C297.297 410.248 309.248 406.66 318.512 401.968C324.814 398.775 334.465 393.062 340.381 387.873C348.256 380.964 352.865 375.941 357.796 367.633C363.537 357.964 362.958 352.269 362.967 351.68C362.976 351.092 362.728 348.819 362.258 348.902C361.072 349.104 351.062 353.52 355.009 351.772C358.956 350.015 344.236 356.759 334.18 360.034C331.024 361.064 327.814 361.966 324.64 362.73C315.872 364.836 307.022 365.894 298.337 365.894C292.992 365.894 287.619 365.49 282.31 364.689C272.614 363.447 263.303 360.972 254.637 357.357C253.027 356.685 251.435 355.968 249.88 355.222C239.687 350.356 230.183 343.621 222.161 335.636H307.702L322.671 314.264H378.68L369.388 335.636H470.809L471.122 334.504C471.14 334.449 471.168 334.394 471.177 334.338L472.125 330.87L473.256 326.712C477.718 310.271 479.982 293.334 479.982 276.378L480 276.369ZM253.809 269.672L195.214 270.159C196.217 221.289 236.218 181.287 287.076 178.72C288.787 178.638 290.517 178.592 292.2 178.592C300.536 178.592 308.779 179.558 316.764 181.471L253.809 269.662V269.672ZM368.358 250.342L384.081 228.299C385.958 235.484 387.255 242.881 387.945 250.342H368.358Z" fill="#003594"/>
<path d="M381.477 209.954C361.808 182.087 329.608 165.325 292.173 165.325C290.241 165.325 288.336 165.38 286.432 165.472C228.914 168.37 183.042 214.545 183.042 270.895C183.042 271.097 183.061 271.309 183.061 271.511H133.749L180.512 165.941H149.269C174.247 139.381 209.364 122.425 248.307 121.597C249.328 121.579 250.35 121.561 251.362 121.561C311.116 121.561 361.228 157.339 381.477 209.954Z" fill="#FFD100"/>
<path d="M246.256 281.843L227.607 308.082C221.728 316.003 213.918 322.369 202.031 322.369H38.538L103.113 176.273H164.615L117.851 281.853H246.246L246.256 281.843Z" fill="#FFD100"/>
<path d="M467.911 275.22C467.911 291.54 465.685 307.346 461.6 322.379H387.936C390.962 315.506 393.492 308.367 395.47 301.007H316.452L301.115 322.37H230.202L330.031 182.53C348.486 189.853 364.163 202.632 375.12 218.86L344.843 261.282H400.622C400.282 178.739 333.26 111.91 250.626 111.91C230.505 111.91 211.314 115.885 193.788 123.061C221.305 105.875 253.781 95.9023 288.612 95.9023C387.641 95.9023 467.92 176.182 467.92 275.21L467.911 275.22Z" fill="#FFD100"/>
<path d="M351.264 363.916C347.299 368.323 343.095 372.352 338.688 376.014C336.581 377.771 334.428 379.436 332.239 381.019C293.507 409.024 241.536 411.213 195.858 392.142C194.929 391.746 193.981 391.341 193.052 390.936C164.928 378.48 142.884 357.669 128.542 332.654H204.938C215.252 346.068 228.849 357.347 245.142 365.139C246.863 365.958 248.611 366.749 250.386 367.485C275.42 377.937 303.848 379.206 328.43 372.214C331.3 371.396 334.116 370.466 336.866 369.427C341.65 367.624 346.241 365.48 350.584 363.005C351.163 362.674 351.706 363.419 351.264 363.907V363.916Z" fill="#FFD100"/>
</svg>
