<svg width="500" height="500" viewBox="0 0 500 500" fill="none" xmlns="http://www.w3.org/2000/svg">
<path d="M250 60C145.234 60 60 145.234 60 250C60 354.766 145.234 440 250 440C354.766 440 440 354.766 440 250C440 145.234 354.766 60 250 60Z" fill="#D50A0A"/>
<path d="M250 425.75C153.092 425.75 74.25 346.908 74.25 250C74.25 153.092 153.092 74.25 250 74.25C346.908 74.25 425.75 153.092 425.75 250C425.75 346.908 346.908 425.75 250 425.75Z" fill="white"/>
<path d="M250 404.73C335.454 404.73 404.728 335.456 404.728 250.002C404.728 164.548 335.454 95.2734 250 95.2734C164.546 95.2734 95.2715 164.548 95.2715 250.002C95.2715 335.456 164.546 404.73 250 404.73Z" fill="#4495D2"/>
<path d="M250 161.24L229.465 176.166L237.316 151.983L216.75 137.041H242.172L250 112.957L257.828 137.041H283.25L262.684 151.983L270.535 176.166L250 161.24Z" fill="white"/>
<path d="M182.003 275.203V300.792L206.346 308.704L182.01 316.608V342.205L166.962 321.495L142.627 329.406L157.668 308.704L142.627 288.002L166.962 295.906L182.003 275.203Z" fill="white"/>
<path d="M317.997 275.203V300.792L293.654 308.704L317.989 316.608V342.205L333.038 321.495L357.373 329.406L342.332 308.704L357.373 288.002L333.038 295.906L317.997 275.203Z" fill="white"/>
<path d="M370.893 195.699L355.062 242.804H335.203L329.329 232.977C325.703 227.042 323.522 225.522 317.389 225.522H284.208L256.3 381.018H243.699L215.792 225.522H182.611C176.477 225.522 174.296 227.042 170.671 232.977L164.796 242.804H144.937L129.107 195.699H370.893Z" fill="white"/>
</svg>
